<svg width="28" height="29" viewBox="0 0 28 29" fill="none" xmlns="http://www.w3.org/2000/svg">
<path d="M22.5633 17.405L21.3967 15.4684C21.1517 15.0367 20.93 14.22 20.93 13.7417V10.79C20.93 8.04837 19.32 5.68004 16.9983 4.57171C16.3917 3.49837 15.2717 2.83337 13.9883 2.83337C12.7167 2.83337 11.5733 3.52171 10.9667 4.60671C8.69167 5.73837 7.11667 8.08337 7.11667 10.79V13.7417C7.11667 14.22 6.895 15.0367 6.65 15.4567L5.47167 17.405C5.005 18.1867 4.9 19.05 5.19167 19.8434C5.47167 20.625 6.13667 21.2317 7 21.5234C9.26333 22.2934 11.6433 22.6667 14.0233 22.6667C16.4033 22.6667 18.7833 22.2934 21.0467 21.535C21.8633 21.2667 22.4933 20.6484 22.7967 19.8434C23.1 19.0384 23.0183 18.1517 22.5633 17.405Z" fill="#2B2B2B"/>
<path d="M17.3017 23.845C16.8117 25.1984 15.5167 26.1667 14 26.1667C13.0783 26.1667 12.1683 25.7934 11.5267 25.1284C11.1533 24.7784 10.8733 24.3117 10.71 23.8334C10.8617 23.8567 11.0133 23.8684 11.1767 23.8917C11.445 23.9267 11.725 23.9617 12.005 23.985C12.67 24.0434 13.3467 24.0784 14.0233 24.0784C14.6883 24.0784 15.3533 24.0434 16.0067 23.985C16.2517 23.9617 16.4967 23.95 16.73 23.915C16.9167 23.8917 17.1033 23.8684 17.3017 23.845Z" fill="#2B2B2B"/>
</svg>
