<svg width="20" height="20" viewBox="0 0 20 20" fill="none" xmlns="http://www.w3.org/2000/svg">
<path d="M3.373 2.51C5.1997 0.889374 7.55803 -0.00385073 10 -2.87857e-06C15.523 -2.87857e-06 20 4.477 20 10C20.0033 12.0439 19.3772 14.0393 18.207 15.715L15.5 10H18C18 8.40935 17.5259 6.85481 16.6381 5.53495C15.7504 4.21509 14.4893 3.18983 13.016 2.59015C11.5428 1.99048 9.92416 1.8436 8.367 2.16829C6.80985 2.49298 5.38484 3.27449 4.274 4.413L3.374 2.511L3.373 2.51ZM16.627 17.49C14.8003 19.1106 12.442 20.0038 10 20C4.477 20 0 15.523 0 10C0 7.875 0.663 5.905 1.793 4.285L4.5 10H2C1.99997 11.5906 2.47412 13.1452 3.36188 14.465C4.24964 15.7849 5.5107 16.8102 6.98397 17.4098C8.45725 18.0095 10.0758 18.1564 11.633 17.8317C13.1901 17.507 14.6152 16.7255 15.726 15.587L16.626 17.489L16.627 17.49ZM11.414 12.828L8.586 10L5.757 12.828L4.343 11.414L8.586 7.172L11.414 10L14.243 7.172L15.657 8.586L11.414 12.828Z" fill="#646464"/>
</svg>
