<svg width="20" height="20" viewBox="0 0 20 20" fill="none" xmlns="http://www.w3.org/2000/svg">
<path d="M11.0598 6.10999L12.4748 7.52499C13.1249 8.17501 13.6405 8.94671 13.9924 9.79604C14.3442 10.6454 14.5253 11.5557 14.5253 12.475C14.5253 13.3943 14.3442 14.3046 13.9924 15.1539C13.6405 16.0033 13.1249 16.775 12.4748 17.425L12.1208 17.778C10.8079 19.0908 9.02738 19.8283 7.17077 19.8283C5.31416 19.8283 3.53359 19.0908 2.22077 17.778C0.907946 16.4652 0.17041 14.6846 0.17041 12.828C0.17041 10.9714 0.907946 9.19081 2.22077 7.87799L3.63577 9.29299C3.16814 9.75654 2.79667 10.3079 2.5427 10.9154C2.28872 11.5229 2.15724 12.1746 2.1558 12.833C2.15435 13.4915 2.28298 14.1437 2.53429 14.7523C2.78561 15.3609 3.15465 15.9139 3.62025 16.3795C4.08585 16.8451 4.63882 17.2141 5.24743 17.4655C5.85603 17.7168 6.50828 17.8454 7.16673 17.844C7.82518 17.8425 8.47686 17.711 9.08436 17.4571C9.69186 17.2031 10.2432 16.8316 10.7068 16.364L11.0608 16.01C11.9981 15.0724 12.5247 13.8008 12.5247 12.475C12.5247 11.1492 11.9981 9.87763 11.0608 8.93999L9.64577 7.52499L11.0608 6.11099L11.0598 6.10999ZM17.7778 12.121L16.3638 10.707C16.8314 10.2434 17.2029 9.69208 17.4568 9.08458C17.7108 8.47708 17.8423 7.8254 17.8437 7.16695C17.8452 6.5085 17.7166 5.85625 17.4652 5.24765C17.2139 4.63904 16.8449 4.08607 16.3793 3.62047C15.9137 3.15487 15.3607 2.78583 14.7521 2.53451C14.1435 2.2832 13.4913 2.15457 12.8328 2.15602C12.1744 2.15746 11.5227 2.28894 10.9152 2.54292C10.3077 2.79689 9.75632 3.16836 9.29277 3.63599L8.93877 3.98999C8.00141 4.92763 7.47484 6.19917 7.47484 7.52499C7.47484 8.85081 8.00141 10.1223 8.93877 11.06L10.3538 12.475L8.93877 13.889L7.52477 12.475C6.87468 11.825 6.359 11.0533 6.00717 10.2039C5.65535 9.35461 5.47426 8.4443 5.47426 7.52499C5.47426 6.60567 5.65535 5.69536 6.00717 4.84604C6.359 3.99671 6.87468 3.22501 7.52477 2.57499L7.87877 2.22199C9.19159 0.909167 10.9722 0.171631 12.8288 0.171631C14.6854 0.171631 16.4659 0.909167 17.7788 2.22199C19.0916 3.53481 19.8291 5.31538 19.8291 7.17199C19.8291 9.0286 19.0916 10.8092 17.7788 12.122L17.7778 12.121Z" fill="#646464"/>
</svg>
