<svg width="22" height="24" viewBox="0 0 22 24" fill="none" xmlns="http://www.w3.org/2000/svg">
<path d="M18.7812 10.5969H13.625V6.0969H11.9375C12.4598 5.39959 12.7405 4.55094 12.7369 3.6797C12.7369 2.38407 12.1238 1.16668 11.1369 0.502697L10.7182 0.220978L10.2996 0.502697C9.3125 1.16677 8.69961 2.38412 8.69961 3.6797C8.69609 4.55095 8.97684 5.39958 9.49925 6.09685H7.625V10.5969H3.21875C2.49794 10.5977 1.80689 10.8844 1.29721 11.3941C0.787521 11.9037 0.500819 12.5948 0.5 13.3156V21.75C0.500447 22.1477 0.658625 22.529 0.939833 22.8102C1.22104 23.0914 1.60231 23.2496 2 23.25H20C20.3977 23.2496 20.779 23.0914 21.0602 22.8102C21.3414 22.529 21.4996 22.1477 21.5 21.75V13.3156C21.4992 12.5948 21.2125 11.9038 20.7028 11.3941C20.1931 10.8844 19.5021 10.5977 18.7812 10.5969ZM10.7182 2.13479C11.0459 2.54185 11.2369 3.09413 11.2369 3.67974C11.2369 4.26535 11.0459 4.81768 10.7182 5.2247C10.3906 4.81768 10.1996 4.26535 10.1996 3.6797C10.1996 3.09404 10.3906 2.54185 10.7182 2.13479ZM9.125 7.5969H12.125V10.5969H9.125V7.5969ZM2 13.3156C2.00037 12.9925 2.1289 12.6828 2.35737 12.4543C2.58585 12.2258 2.89563 12.0973 3.21875 12.0969H18.7812C19.1044 12.0973 19.4141 12.2258 19.6426 12.4543C19.8711 12.6828 19.9996 12.9925 20 13.3156V14.7958L18.9875 15.2426C18.7895 15.3297 18.5755 15.3747 18.3592 15.3747C18.1428 15.3747 17.9288 15.3297 17.7308 15.2426L15.9688 14.4651L14.2062 15.2425C14.0082 15.3297 13.7942 15.3747 13.5779 15.3747C13.3615 15.3747 13.1476 15.3297 12.9495 15.2425L11.1875 14.465L9.425 15.2425C9.22698 15.3296 9.01299 15.3746 8.79664 15.3746C8.58029 15.3746 8.3663 15.3296 8.16828 15.2425L6.40625 14.4651L4.64408 15.2425C4.44606 15.3296 4.23207 15.3746 4.01572 15.3746C3.79937 15.3746 3.58538 15.3296 3.38736 15.2425L2 14.6305V13.3156ZM20 21.75H2V16.27L2.78178 16.6149C3.17062 16.786 3.5908 16.8744 4.01562 16.8744C4.44045 16.8744 4.86063 16.786 5.24947 16.6149L6.40625 16.1045L7.56308 16.6149C7.95191 16.786 8.37208 16.8744 8.7969 16.8744C9.22171 16.8744 9.64188 16.786 10.0307 16.6149L11.1875 16.1045L12.3442 16.6149C12.7331 16.786 13.1532 16.8744 13.578 16.8744C14.0028 16.8744 14.423 16.786 14.8118 16.6149L15.9688 16.1045L17.1255 16.6149C17.5144 16.786 17.9345 16.8744 18.3593 16.8744C18.7841 16.8744 19.2043 16.786 19.5931 16.6149L20.0006 16.4352L20.0009 21.75H20Z" fill="#646464"/>
</svg>
